<svg xmlns="http://www.w3.org/2000/svg" viewBox="0 0 48 48"><defs><style>.cls-1,.cls-2{fill:none;stroke-linecap:round;stroke-linejoin:round;stroke-width:2px}.cls-1{stroke:#79acf2}.cls-2{stroke:#ca79f2}</style></defs><g id="Layer_2" data-name="Layer 2"><g id="Layer_1-2" data-name="Layer 1"><path class="cls-1" d="M34.41 43.12v1a2.91 2.91 0 0 1-2.9 2.88H3.91A2.91 2.91 0 0 1 1 44.09V3.91A2.91 2.91 0 0 1 3.91 1h27.6a2.91 2.91 0 0 1 2.91 2.91v10.68M1 8.41h33.41"/><circle class="cls-1" cx="6.08" cy="4.78" r=".73"/><circle class="cls-1" cx="10.44" cy="4.78" r=".73"/><circle class="cls-1" cx="14.8" cy="4.78" r=".73"/><path class="cls-1" d="M4.74 25.71V11.96h26.3v.69M11.61 25.71H4.74m7.76 4.65H4.74m9.33 4.55H4.74m12.97 4.02H4.74"/><path class="cls-2" d="M46.62 42.08L39 34.45a2.09 2.09 0 0 0-2.42 0l-1-1.06a11.17 11.17 0 1 0-2.11 2.11l1 1.06a2.09 2.09 0 0 0 0 2.42l7.64 7.62c.75.75 2.38.34 3.64-.92s1.63-2.85.87-3.6z"/><path class="cls-2" d="M22.01 26.58l3.79 3.78 7.41-7.41"/></g></g></svg>