<svg id="Слой_1" xmlns="http://www.w3.org/2000/svg" viewBox="0 0 75 65"><style>.st0,.st1{fill:none;stroke:#79acf2;stroke-width:2;stroke-linecap:round;stroke-linejoin:round;stroke-miterlimit:10}.st1{stroke:#ca79f2}</style><path class="st0" d="M64.4 24V3.3c0-.9-.8-1.7-1.7-1.7H3.5c-.9 0-1.7.8-1.7 1.7v38.9c0 .9.8 1.7 1.7 1.7h48.3M1.8 36h42.3M33.7 52.4h-9.1V44m-4.1 8.4h17.6"/><path class="st1" d="M48.2 37v-7.9c0-.9.8-1.7 1.7-1.7h21.5c.9 0 1.7.8 1.7 1.7v29.8c0 .9-.8 1.7-1.7 1.7H57.5m0-5.2h15.6"/><path class="st0" d="M43.2 40.3h10.2c.9 0 1.7.8 1.7 1.7v20.5c0 .9-.8 1.7-1.7 1.7H43.2c-.9 0-1.7-.8-1.7-1.7V42c0-.9.7-1.7 1.7-1.7z"/><path class="st1" d="M72.7 30.4H48.3"/><path class="st0" d="M54.4 60.6h-9.6"/><circle class="st1" cx="60.7" cy="58" r=".7"/></svg>