<svg id="Слой_1" xmlns="http://www.w3.org/2000/svg" viewBox="0 0 65 65"><style>.st0{fill:none;stroke-width:2;stroke-linecap:round;stroke-linejoin:round;stroke-miterlimit:10;stroke:#79acf2}</style><path class="st0" d="M53.6 40.3v12.1l-21 12.1-21-12.1v-12M43.1 22l21 12.2m-63 0L22.2 22m-21.1.1l31.5 18.2 31.5-18.2"/><path class="st0" d="M32.6 40.3l-10.5 6-21-12.1m31.5 6.1v24.2m0-24.2l10.5 6 21-12.1M16.9 13L1.1 22.1M48.4 13l15.7 9.1"/><path d="M29.1 22c-4.1-1.4-7-5.3-7-9.9 0-5.8 4.7-10.5 10.5-10.5s10.5 4.7 10.5 10.5c0 4.6-2.9 8.4-7 9.9m0 0v3.4h-7V22m7 7h-7m7 3.7h-7" stroke="#ca79f2" fill="none" stroke-width="2" stroke-linecap="round" stroke-linejoin="round"/></svg>