<svg data-name="Layer 1" xmlns="http://www.w3.org/2000/svg" viewBox="0 0 230 31.64"><defs><linearGradient id="a" x1="15.82" y1="31.64" x2="15.82" gradientUnits="userSpaceOnUse"><stop offset="0" stop-color="#0045a6"/><stop offset="1" stop-color="#005fca"/></linearGradient></defs><path d="M13.8 0h17.84v25.31a6.35 6.35 0 0 1-6.33 6.33H0V6.31A6.35 6.35 0 0 1 6.33 0h7.47zM6.89 3.84a3 3 0 1 1-3 3 3 3 0 0 1 3-3zm8.93 0a3 3 0 1 1-3 3 3 3 0 0 1 3-3zm0 8.93a3 3 0 1 1-3 3 3 3 0 0 1 3-3zm.24 9.17a3 3 0 1 1-3 3 3 3 0 0 1 3-3zm8.69-18.1a3 3 0 1 1-3 3 3 3 0 0 1 3-3zM25 21.95a3 3 0 1 1-3 3 3 3 0 0 1 3-3z" fill-rule="evenodd" fill="url(#a)"/><path d="M167.82 22.86h9.27v4.61h-14.8V8.33c0-3 1.18-4.17 4.15-4.17h1.38v18.7zM230 8.61h-11.13v4.78h8.74v4.38h-8.74v5.09H230v4.61h-16.66V8.31c0-3 1.17-4.14 4.14-4.14H230v4.44zm-21.3-4.44v23.3H204l-9.1-15.74v15.74h-4.18V8.31c0-3 1.18-4.14 4.16-4.14h1.74l7.94 13.74-.1-13.74h4.21zm-22.61 0v23.3h-5.44V8.32c0-2.94 1.13-4.15 4.09-4.15h1.36zm-129.83 0v4.61h-5.77v18.69H45V8.78h-5.8v-.53c0-3 1.16-4.07 4.14-4.07h13zm8.58 14.06v9.23h-5.5V8.31c0-3 1.17-4.13 4.13-4.13h6.1a13 13 0 0 1 4.55.66A5.85 5.85 0 0 1 77 7.24a7.09 7.09 0 0 1 1.13 3.91 6.2 6.2 0 0 1-4 6l4.3 10.29h-6l-3.59-9.23h-4zm0-9.91v5.94h3.34a9 9 0 0 0 2.39-.26 2.65 2.65 0 0 0 1.32-1 3 3 0 0 0 .58-1.82 2.84 2.84 0 0 0-.58-1.74 2.38 2.38 0 0 0-1.26-.94 11.75 11.75 0 0 0-2.56-.18h-3.23zM94.5 4.17l7.3 23.29h-5.87l-1.42-4.79H87l-1.5 4.8h-4.78l5.7-17.84.44-1.36c.75-2.35 2.14-4.1 4.57-4.1h3.07zm-6.22 14.2h4.95l-2.48-8.17-2.47 8.17zM116 4.17h4.78L115.11 22l-.44 1.36c-.75 2.35-2.14 4.09-4.57 4.09H107L99.74 4.17h5.87q2.56 8.64 5.18 17.27 2.61-8.63 5.21-17.27zm23.71 4.44h-11.1v4.78h8.74v4.39h-8.74v5.09h11.11v4.61h-16.65V8.31c0-3 1.18-4.14 4.15-4.14h12.51v4.44zm9.56 14.25h9.26v4.61h-14.79V8.33c0-3 1.17-4.16 4.15-4.16h1.38v18.69z" fill="#353535"/></svg>