<svg data-name="Layer 1" xmlns="http://www.w3.org/2000/svg" viewBox="0 0 35.36 40"><path d="M34 9L19 .36a2.67 2.67 0 0 0-2.67 0L1.34 9A2.67 2.67 0 0 0 0 11.34v17.32A2.67 2.67 0 0 0 1.34 31l2.09 1.21 12.9 7.45a2.67 2.67 0 0 0 2.67 0L34 31a2.67 2.67 0 0 0 1.34-2.31V11.34A2.67 2.67 0 0 0 34 9zM23.14 4.11l5.67 3.27 1.1.62 3 1.75A2.52 2.52 0 0 1 34.2 12v13.6l-5.18-3v-8.8a.6.6 0 0 0-.3-.52L21.26 9V3l.74.47zM17.68 31.7L7.54 25.85v-11.7L17.68 8.3l10.14 5.85v11.7zm-1.26-30a2.52 2.52 0 0 1 2.52 0l1.06.62v5.95l-2-1.2a.6.6 0 0 0-.61 0l-2 1.18V2.31zM1.16 23.17V12a2.52 2.52 0 0 1 1.26-2.23L5.44 8l1.11-.64 5.67-3.27 1.11-.64.79-.45v6l-7.48 4.27a.6.6 0 0 0-.3.52v8.76l-5.18 3v-2.38zm0 4.94V27l5.18-3v2.2a.6.6 0 0 0 .3.52L8.81 28l-5.16 3-1.23-.7a2.52 2.52 0 0 1-1.26-2.19zM22 36.6l-3.09 1.78a2.52 2.52 0 0 1-2.52 0l-3.06-1.78-1.11-.6-4.91-2.88L5.42 32l-.57-.33 5.16-3 7.36 4.25a.61.61 0 0 0 .61 0l7.36-4.25 5.2 3-.6.35zm10.91-6.3l-1.16.7-5.2-3 2.17-1.25a.6.6 0 0 0 .28-.55V24l5.18 3v1.16a2.52 2.52 0 0 1-1.24 2.14z" fill="#465e7b"/></svg>