<svg id="Слой_1" xmlns="http://www.w3.org/2000/svg" viewBox="0 0 65 65"><style>.st1,.st2{fill:none;stroke-width:2;stroke-linecap:round;stroke-linejoin:round}.st1{stroke-miterlimit:10;stroke:#79acf2}.st2{stroke:#ca79f2}</style><path class="st1" d="M32.9 54.5l-15.6 9-15.5-9v-18l15.5-9 15.6 9z"/><path class="st1" d="M32.9 36.5l-15.6 9-15.5-9m15.5 9v18M25.1 41L9.6 32m15.5 9v4.5"/><path class="st1" d="M64.1 54.5l-15.6 9-15.6-9v-18l15.6-9 15.6 9z"/><path class="st1" d="M64.1 36.5l-15.6 9-15.6-9m15.6 9v18M56.3 41l-15.6-9m15.6 9v4.5"/><path class="st2" d="M48.5 27.5l-15.6 9-15.6-9v-18l15.6-9 15.6 9z"/><path class="st2" d="M48.5 9.5l-15.6 9-15.6-9m15.6 9v18M25.1 14l15.6-9m-15.6 9v4.5"/></svg>