<svg xmlns="http://www.w3.org/2000/svg" viewBox="0 0 48 48"><defs><style>.cls-1{fill:none;stroke-linecap:round;stroke-linejoin:round;stroke-width:2px;stroke:#79acf2}</style></defs><g id="Layer_2" data-name="Layer 2"><g id="Layer_1-2" data-name="Layer 1"><path class="cls-1" d="M45.33 15.48a21.69 21.69 0 0 0-3.25-5.6l-10.7 9.83z"/><path class="cls-1" d="M7 8.5A23 23 0 0 0 30.83 46l-5.49-13.56a8.55 8.55 0 1 1 3.36-15.59L36.1 10l3.4-3A23 23 0 0 0 7 8.5z"/><path d="M46.47 19.11L32.53 23.4v.6a8.54 8.54 0 0 1-3.66 7l5.47 13.51 3.7-2.34a22.93 22.93 0 0 0 8.43-23.06z" stroke="#ca79f2" fill="none" stroke-linecap="round" stroke-linejoin="round" stroke-width="2"/></g></g></svg>