<svg xmlns="http://www.w3.org/2000/svg" viewBox="0 0 55 48.76"><g data-name="Layer 2"><g data-name="Layer 1" fill="none" stroke-linecap="round" stroke-linejoin="round" stroke-width="2"><path d="M42.33 4.78h10.08A1.59 1.59 0 0 1 54 6.38V39a1.59 1.59 0 0 1-1.59 1.59H2.59A1.59 1.59 0 0 1 1 39V6.38a1.59 1.59 0 0 1 1.59-1.6h10.08M1.06 33.84h49.3M20.34 47.76V40.6m14.32 0v7.16m-18.53 0h22.74" stroke="#79acf2"/><path d="M16.74 17.87a11.38 11.38 0 0 0 1 2.42l-1.23 1.54a1.27 1.27 0 0 0 .09 1.68l2.11 2.12a1.26 1.26 0 0 0 1.68.09l1.53-1.22a11.17 11.17 0 0 0 2.51 1l.23 2a1.27 1.27 0 0 0 1.25 1.13h3a1.27 1.27 0 0 0 1.25-1.13l.22-1.91a11.28 11.28 0 0 0 2.72-1.09l1.43 1.23a1.27 1.27 0 0 0 1.68-.09l2.11-2.12a1.26 1.26 0 0 0 .09-1.68l-1.15-1.47a11 11 0 0 0 1.11-2.64l1.82-.21a1.26 1.26 0 0 0 1.13-1.25v-3A1.27 1.27 0 0 0 40.2 12l-1.75-.21a11.11 11.11 0 0 0-1.06-2.63l1.08-1.36a1.27 1.27 0 0 0-.09-1.68L36.26 4a1.26 1.26 0 0 0-1.72-.09L33.26 5a11.13 11.13 0 0 0-2.72-1.15l-.2-1.72A1.27 1.27 0 0 0 29.06 1h-3a1.26 1.26 0 0 0-1.25 1.13l-.25 1.72A11.1 11.1 0 0 0 21.75 5l-1.33-1.06a1.27 1.27 0 0 0-1.68.06l-2.12 2.15a1.26 1.26 0 0 0-.09 1.68l1.15 1.45a10.9 10.9 0 0 0-1.05 2.62l-1.82.21a1.27 1.27 0 0 0-1.14 1.29v3a1.26 1.26 0 0 0 1.13 1.25zm15-7.53A6 6 0 1 1 27.6 8.7" stroke="#ca79f2"/></g></g></svg>