<svg data-name="1" xmlns="http://www.w3.org/2000/svg" xmlns:xlink="http://www.w3.org/1999/xlink" viewBox="0 0 47.69 54.15"><defs><linearGradient id="a" x1="-80.13" y1="95.81" x2="-121.43" y2="66.88" gradientUnits="userSpaceOnUse"><stop offset="0" stop-color="#1a4ab5"/><stop offset=".5" stop-color="#90c"/><stop offset="1" stop-color="red"/></linearGradient><linearGradient id="b" x1="-62.14" y1="95.26" x2="-136.42" y2="53.77" xlink:href="#a"/><linearGradient id="c" x1="-70.96" y1="100.74" x2="-124.07" y2="56.84" xlink:href="#a"/></defs><path d="M-80 67.64l-4.32-2.49-1.49-.86-7.65-4.42-1.5-.86-4.46-2.57a2.82 2.82 0 0 0-2.82 0l-4.41 2.56-1.5.86-7.65 4.42-1.49.86-4.37 2.52a2.82 2.82 0 0 0-1.41 2.44v22.19a3.35 3.35 0 0 0 1.67 2.9l4.08 2.35 2.55 1.47 6.63 3.83 1.5.86 4.55 2.63a2.62 2.62 0 0 0 2.62 0l4.56-2.63 10.67-6.16L-79.9 95a2.81 2.81 0 0 0 1.4-2.43v-22.4a2.92 2.92 0 0 0-1.5-2.53z" transform="translate(124.65 -54.22)" fill="url(#a)" opacity=".8"/><path d="M-80.2 67.5l-9.89-5.71a.07.07 0 0 0-.07 0l-10.57 6.12a.07.07 0 0 0 0 .06v23.16a.07.07 0 0 0 0 .06l13.61 8a.07.07 0 0 0 .07 0l1.31-.76 1.49-.86 4.36-2.57a2.78 2.78 0 0 0 1.39-2.41V70.45a3.4 3.4 0 0 0-1.7-2.95z" transform="translate(124.65 -54.22)" opacity=".7" fill="url(#b)"/><path d="M-94.92 59l-4.48-2.58a2.78 2.78 0 0 0-2.78 0l-4.47 2.58-10.64 6.14-4.39 2.54a2.78 2.78 0 0 0-1.39 2.41v10.64a.07.07 0 0 0 .11.06l32.72-19a.07.07 0 0 0 0-.13z" transform="translate(124.65 -54.22)" fill="url(#c)" opacity=".8"/><path d="M29.87 23.21l-2.82-1.63-2.82-1.63a.75.75 0 0 0-.75 0l-2.83 1.63-2.77 1.6a.75.75 0 0 0-.42.67v6.52a.75.75 0 0 0 .37.65l2.82 1.63 2.82 1.63a.75.75 0 0 0 .75 0l2.82-1.63 2.77-1.6a.75.75 0 0 0 .42-.67v-6.52a.75.75 0 0 0-.36-.65zm-1.12 3.91v2.83l-2.45 1.41-2.45 1.42-2.45-1.41-2.45-1.41v-5.67l2.45-1.41 2.45-1.41 2.45 1.41 2.45 1.41v2.83zm17.43-14.68L25.37.44a3 3 0 0 0-3 0l-20.81 12a3 3 0 0 0-1.52 2.63v24a3 3 0 0 0 1.52 2.63l20.81 12a3 3 0 0 0 3 0l20.81-12a3 3 0 0 0 1.47-2.6v-24a3 3 0 0 0-1.48-2.66zm-15-6.78l7.65 4.42-4.94 2.85-1.37-.79-1.3-.75v-5.7zm3.47 15.38v-6l5 2.93v6zM17.98 4.78l4.45-2.57a2.77 2.77 0 0 1 2.83 0l4.45 2.57v5.7l-5.49-3.17a.75.75 0 0 0-.75 0l-5.49 3.17v-5.7zm11 7l-2.24 1.29-2.89 1.71-2.93-1.69-2.27-1.31 5.17-3zM16.45 5.62v5.7l-1.3.75-1.41.82-4.93-2.85zM1.53 15.87a2.77 2.77 0 0 1 1.42-2.45l4.51-2.44 4.79 2.77-5.34 3.08a.75.75 0 0 0-.42.67v6.47l-5-2.87v-5.19zM13.06 15v6l-2.9 1.78-2.14 1.24v-6zm0 18.17v6l-5.08-2.93v-6l2.14 1.24zM1.56 22.88l5 2.86v2.77l-5 2.87v-8.5zm1.42 18a2.77 2.77 0 0 1-1.42-2.46V33.1l5-2.86v6.45a.75.75 0 0 0 .37.65l5.4 3.12-5 2.88zm13.51 7.8L8.8 44.24l5-2.88 1.4.81 1.3.75v5.76zm13.23.86l-4.45 2.57a2.77 2.77 0 0 1-2.83 0l-4.45-2.57v-5.76l5.49 3.17a.75.75 0 0 0 .75 0l5.48-3.17v5.76zm-.71-7.07l-5.16 3-5.16-3 5.16-3zm-4.74-4.46a.75.75 0 0 0-.79 0l-6.27 3.62-1.27-.73-1.34-.77v-7.35a.75.75 0 0 0-.37-.65l-3.31-1.91-2.89-1.67v-2.86l2.89-1.67 3.24-1.87a.75.75 0 0 0 .44-.68v-7.29l1.34-.77 1.25-.72 2.95 1.7 3.31 1.91a.74.74 0 0 0 .74 0l3.27-1.89 3-1.72 1.25.72 1.3.75v7.29a.75.75 0 0 0 .37.65l6.2 3.58v2.87l-6.14 3.54a.75.75 0 0 0-.44.68v7.27l-1.34.77-1.26.73zm15.38-7.73v6l-5 2.91v-6zm-8.47 18.35v-5.76l1.3-.75 1.4-.81 5 2.88zM46.1 38.38a2.77 2.77 0 0 1-1.39 2.4l-4.33 2.5-5-2.88 5.34-3.08a.75.75 0 0 0 .44-.68v-6.41l5 2.86v5.28zm0-7l-5-2.86v-2.74l5-2.86v8.5zm0-10.22l-5 2.86v-6.48a.74.74 0 0 0-.37-.65l-5.32-3.11 4.94-2.85 4.36 2.52a2.77 2.77 0 0 1 1.42 2.45v5.24z" fill="#fff" fill-rule="evenodd"/></svg>