<svg data-name="1" xmlns="http://www.w3.org/2000/svg" xmlns:xlink="http://www.w3.org/1999/xlink" viewBox="0 0 47.69 53.95"><defs><linearGradient id="a" x1="88.78" y1="555.36" x2="47.62" y2="526.54" gradientUnits="userSpaceOnUse"><stop offset="0" stop-color="#1a4ab5"/><stop offset=".5" stop-color="#90c"/><stop offset="1" stop-color="red"/></linearGradient><linearGradient id="b" x1="106.83" y1="554.85" x2="32.55" y2="513.36" xlink:href="#a"/><linearGradient id="c" x1="98.08" y1="560.42" x2="44.89" y2="516.45" xlink:href="#a"/></defs><path d="M88.78 527.1l-4.08-2.36-1.49-.86-7.65-4.42-1.5-.86-4.16-2.4a3.4 3.4 0 0 0-3.4 0l-4.16 2.4-1.5.86-7.65 4.42-1.49.86-4.08 2.35a3.4 3.4 0 0 0-1.7 2.95v21.8a3.4 3.4 0 0 0 1.7 2.95l4 2.34 2.55 1.47 6.63 3.83 1.5.86 4.16 2.4a3.4 3.4 0 0 0 3.4 0l4.16-2.4 10.67-6.16 4-2.33a3.4 3.4 0 0 0 1.7-2.95V530a3.4 3.4 0 0 0-1.61-2.9z" transform="translate(-44.35 -513.93)" fill="url(#a)" opacity=".8"/><path d="M88.78 527.1l-9.92-5.73-10.65 6.17v23.23l13.68 8 1.35-.78 1.49-.86 4.33-2.5a2.83 2.83 0 0 0 1.42-2.45V530a3.4 3.4 0 0 0-1.7-2.9z" transform="translate(-44.35 -513.93)" opacity=".7" fill="url(#b)"/><path d="M74.06 518.6l-4.45-2.6a2.83 2.83 0 0 0-2.83 0l-4.45 2.57-10.64 6.14-4.36 2.52a2.83 2.83 0 0 0-1.42 2.45v10.73l32.95-19.08z" transform="translate(-44.35 -513.93)" fill="url(#c)" opacity=".8"/><path d="M45.89 12.16L25.65.48a3.6 3.6 0 0 0-3.6 0L1.8 12.16A3.6 3.6 0 0 0 0 15.28v23.37a3.6 3.6 0 0 0 1.8 3.12l20.24 11.7a3.6 3.6 0 0 0 3.6 0l20.24-11.69a3.6 3.6 0 0 0 1.8-3.12V15.28a3.6 3.6 0 0 0-1.79-3.12zm-42.63 1l4.08-2.35 1.49-.86 7.65-4.42 1.5-.86 4.16-2.4a3.4 3.4 0 0 1 3.4 0l4.16 2.4 1.5.86 7.65 4.42 1.49.86 4.08 2.35a3.39 3.39 0 0 1 .8.65h-.1l-7.07 4.08-13.86-8a.81.81 0 0 0-.82 0L9.65 17.88l-7.11-4.11a3.39 3.39 0 0 1 .72-.6zm19.74 29l-12.64-7.3V20.19l12.65 7.31v14.58zM11.25 18.82l12.54-7.24 12.64 7.3-12.55 7.19zm13.4 8.74l12.57-7.26v14.53l-12.57 7.24V27.56zm-6.66 21.8l-1.5-.86-6.63-3.83-2.55-1.47-4-2.34a3.4 3.4 0 0 1-1.7-2.95V16.07a3.4 3.4 0 0 1 .13-.93l7 4.06v16a.82.82 0 0 0 .41.71l13.87 8v8.16a3.4 3.4 0 0 1-.86-.35zm28.14-28.29v16.89a3.4 3.4 0 0 1-1.7 2.95l-4 2.33-10.67 6.16-4.16 2.4a3.39 3.39 0 0 1-.91.36v-8.19l13.8-8a.82.82 0 0 0 .41-.71v-15.9l7.1-4.1.06-.06a3.4 3.4 0 0 1 .12.91v4.96z" fill="#fff"/></svg>