<svg data-name="1" xmlns="http://www.w3.org/2000/svg" xmlns:xlink="http://www.w3.org/1999/xlink" viewBox="0 0 56.57 64"><defs><linearGradient id="a" x1="-307.31" y1="665.63" x2="-356.13" y2="631.44" gradientUnits="userSpaceOnUse"><stop offset="0" stop-color="#1a4ab5"/><stop offset=".5" stop-color="#90c"/><stop offset="1" stop-color="red"/></linearGradient><linearGradient id="b" x1="-285.89" y1="665.03" x2="-374.01" y2="615.81" xlink:href="#a"/><linearGradient id="c" x1="-296.27" y1="671.64" x2="-359.36" y2="619.48" xlink:href="#a"/></defs><path d="M-307.3 632.11l-4.84-2.79-1.77-1-9.08-5.24-1.78-1-4.94-2.85a4 4 0 0 0-4 0l-4.94 2.85-1.78 1-9.08 5.24-1.77 1-4.84 2.79a4 4 0 0 0-2 3.5v25.86a4 4 0 0 0 2 3.5l4.8 2.77 3 1.75 7.86 4.54 1.78 1 4.94 2.85a4 4 0 0 0 4 0l4.94-2.85 12.66-7.31 4.8-2.77a4 4 0 0 0 2-3.5v-25.84a4 4 0 0 0-1.96-3.5z" transform="translate(360.01 -616.48)" fill="url(#a)" opacity=".8"/><path d="M-307.3 632.11l-11.77-6.8-12.63 7.31v27.56l16.23 9.5 1.6-.92 1.77-1 5.14-3a3.36 3.36 0 0 0 1.68-2.91v-26.24a4 4 0 0 0-2.02-3.5z" transform="translate(360.01 -616.48)" opacity=".7" fill="url(#b)"/><path d="M-324.76 622l-5.28-3a3.36 3.36 0 0 0-3.36 0l-5.27 3-12.62 7.29-5.18 3a3.36 3.36 0 0 0-1.68 2.91v12.73l39.08-22.63z" transform="translate(360.01 -616.48)" fill="url(#c)" opacity=".8"/><path d="M54.44 14.44L30.44.58a4.27 4.27 0 0 0-4.27 0l-24 13.86a4.27 4.27 0 0 0-2.14 3.7v27.73a4.27 4.27 0 0 0 2.14 3.7l24 13.86a4.27 4.27 0 0 0 4.27 0l24-13.86a4.27 4.27 0 0 0 2.14-3.7V18.14a4.27 4.27 0 0 0-2.14-3.7zm.29 4.69v.71l-7.65 4.47-2.75-1.55v-3.23l7.53-4.41.88.51a4 4 0 0 1 1.98 3.5zm-6.86-6.29l2 1.17-7.07 4.13a1 1 0 0 0-.48.85l.05 4.36a1 1 0 0 0 .49.83l3.72 2.1a1 1 0 0 0 .48.13 1 1 0 0 0 .49-.13l7.15-4.18v6.82l-10.81 6.29a1 1 0 0 0-.45.59 1 1 0 0 0 .1.74l2.83 4.84-17.09-9.86V11.59l2.91 5a1 1 0 0 0 .59.45 1 1 0 0 0 .25 0 1 1 0 0 0 .49-.13l10.66-6.26 1.93 1.12zM21.33 5.52l4.94-2.85a4 4 0 0 1 4 0l4.94 2.85 1.78 1 5.21 3-8.87 5.21-4.12-7.1a1 1 0 0 0-.05-.12.94.94 0 0 0-.17-.26l-.07-.06a.9.9 0 0 0-.14-.12h-.22a1 1 0 0 0-.22 0h-.31l-.17.07-.13.12a.94.94 0 0 0-.15.22v.05l-4.09 7.2-9.07-5.14 5.32-3.07zm-10.85 6.26l1.81-1 10.9 6.18a1 1 0 0 0 .48.13 1 1 0 0 0 .84-.49l2.82-5v19.92l-15.63 9-1.44.81 2.75-4.81a1 1 0 0 0 .09-.74 1 1 0 0 0-.46-.58l-10.8-6.13v-6.55l7.12 4a1 1 0 0 0 .48.13 1 1 0 0 0 .5-.14l3.74-2.23a1 1 0 0 0 .47-.84l-.06-4.27a1 1 0 0 0-.49-.83l-7.27-4.12 2.37-1.37zM3.87 15.6l.53-.3 7.77 4.41v3.15l-2.78 1.66-7.58-4.3V19.1a4 4 0 0 1 2.06-3.47zm4.8 35.63l-4.8-2.77a4 4 0 0 1-2-3.5V31.27l9 5.11-3.91 6.89a1 1 0 0 0-.26.64 1 1 0 0 0 1 1h8.16v10.48l-4.1-2.37zM30.3 61.39a4 4 0 0 1-4 0l-.74-.43v-8.8l2.72-1.59 2.81 1.6v8.78zm2.7-1.56V51.6a1 1 0 0 0-.49-.84l-3.79-2.15a1 1 0 0 0-1 0l-3.69 2.15a1 1 0 0 0-.48.84v8.24l-2.26-1.31-1.78-1-1.82-1.05V43.92a1 1 0 0 0-.28-.68 1 1 0 0 0-.68-.29h-5.48l17-9.76 17.27 9.93h-5.83a1 1 0 0 0-.68.28 1 1 0 0 0-.28.69v12.43l-3.53 2zm21.72-20.74v5.87a4 4 0 0 1-2 3.5l-4.8 2.77-7.19 4.15V45.04h8.38a1 1 0 0 0 .49-.13.94.94 0 0 0 .33-.35.93.93 0 0 0 .05-.16v-.05a.94.94 0 0 0-.23-.93l-4.11-7 9-5.24v8z" fill="#fff"/></svg>