<svg data-name="1" xmlns="http://www.w3.org/2000/svg" xmlns:xlink="http://www.w3.org/1999/xlink" viewBox="0 0 47.87 53.96"><defs><linearGradient id="a" x1="-160.44" y1="510.82" x2="-201.6" y2="482" gradientUnits="userSpaceOnUse"><stop offset="0" stop-color="#1a4ab5"/><stop offset=".5" stop-color="#90c"/><stop offset="1" stop-color="red"/></linearGradient><linearGradient id="b" x1="-142.39" y1="510.31" x2="-216.67" y2="468.82" xlink:href="#a"/><linearGradient id="c" x1="-151.14" y1="515.88" x2="-204.33" y2="471.92" xlink:href="#a"/></defs><path d="M-160.44 482.56l-4.08-2.35-1.49-.86-7.65-4.42-1.5-.86-4.16-2.4a3.4 3.4 0 0 0-3.4 0l-4.16 2.4-1.5.86-7.65 4.42-1.49.86-4.08 2.35a3.4 3.4 0 0 0-1.7 2.95v21.8a3.4 3.4 0 0 0 1.7 2.95l4 2.34 2.55 1.47 6.63 3.83 1.5.86 4.16 2.4a3.4 3.4 0 0 0 3.4 0l4.16-2.4 10.67-6.16 4-2.33a3.4 3.4 0 0 0 1.7-2.95v-21.8a3.4 3.4 0 0 0-1.61-2.96z" transform="translate(204.96 -469.34)" fill="url(#a)" opacity=".8"/><path d="M-160.44 482.56l-9.92-5.73L-181 483v23.23l13.68 8 1.35-.78 1.49-.86 4.33-2.5a2.83 2.83 0 0 0 1.42-2.45v-22.13a3.4 3.4 0 0 0-1.71-2.95z" transform="translate(204.96 -469.34)" opacity=".7" fill="url(#b)"/><path d="M-175.16 474.07l-4.45-2.57a2.83 2.83 0 0 0-2.83 0l-4.45 2.57-10.64 6.14-4.36 2.52a2.83 2.83 0 0 0-1.42 2.45v10.73l32.94-19.08z" transform="translate(204.96 -469.34)" fill="url(#c)" opacity=".8"/><path d="M47.79 15.31a3.6 3.6 0 0 0-1.8-3.12L25.99.54a4 4 0 0 0-4 0L1.93 12.19a3.6 3.6 0 0 0-1.8 3.12l-.1 22.1c0 2.28.51 3.59 1.94 4.51l20.2 11.57a3.6 3.6 0 0 0 3.6 0l20.14-11.51a4 4 0 0 0 2-3.47zm-4.38 26.22l-2.93 1.69-4.16 2.4-.11-23.86 10 5.7v10.48a3.4 3.4 0 0 1-1.62 2.9zm-3-30.7l4.08 2.35a3.4 3.4 0 0 1 1.7 2.95v9.47L25.45 13.66l10-5.75 3.54 2zM9.96 44.66L7.61 43.3l-4.44-2.58a3.4 3.4 0 0 1-1.5-2.82v-9.54l20.78 11.88-10.06 5.82zm12.45-17.77l-9.09 5.25V21.66zm-8.18-6.61l8.92-5.15v10.3zm-.1 13.27l9-5.21v10.41zm-.85-14.61V7.46l3.31-1.91 1.5-.86 4.16-2.4a3.4 3.4 0 0 1 3.4 0l4.16 2.4 1.5.86 2.48 1.43zm11.5-3.8l9 5.19-9 5.24V15.18zm0 13.38l8.9 5.08-8.9 5.14V28.56zm.71-1.48l9.09-5.31v10.5zm-23.83-6v-4.91a3.4 3.4 0 0 1 1.7-2.95l4.08-2.35 1.49-.86 2.71-1.57v23.89l-10-5.79v-5.47zm24 30.74a3.4 3.4 0 0 1-3.4 0l-4.16-2.4-1.5-.86-2.58-1.49 20.64-12.06.05 11.59-4.89 2.82z" fill="#fff"/></svg>