<svg data-name="1" xmlns="http://www.w3.org/2000/svg" xmlns:xlink="http://www.w3.org/1999/xlink" viewBox="0 0 47.69 53.95"><defs><linearGradient id="a" x1="-81.97" y1="192.57" x2="-123.06" y2="163.8" gradientUnits="userSpaceOnUse"><stop offset="0" stop-color="#1a4ab5"/><stop offset=".5" stop-color="#90c"/><stop offset="1" stop-color="red"/></linearGradient><linearGradient id="b" x1="-63.95" y1="192.06" x2="-138.1" y2="150.65" xlink:href="#a"/><linearGradient id="c" x1="-72.68" y1="197.63" x2="-125.78" y2="153.74" xlink:href="#a"/></defs><path d="M-82 164.36l-4-2.36-1.49-.86-7.64-4.41-1.49-.86-4.16-2.4a3.4 3.4 0 0 0-3.4 0l-4.15 2.4-1.49.86-7.64 4.41-1.54.86-4.07 2.35a3.4 3.4 0 0 0-1.7 2.94v21.76a3.4 3.4 0 0 0 1.7 2.94l4 2.33 2.54 1.47 6.62 3.82 1.49.86 4.15 2.4a3.4 3.4 0 0 0 3.4 0l4.16-2.4 10.71-6.13 4-2.33a3.4 3.4 0 0 0 1.7-2.94v-21.76a3.4 3.4 0 0 0-1.7-2.95z" transform="translate(126.36 -151.17)" fill="url(#a)" opacity=".8"/><path d="M-82 164.36l-9.91-5.72-10.63 6.16V188l13.66 8 1.35-.78 1.49-.86 4.32-2.5a2.83 2.83 0 0 0 1.41-2.45v-22.1a3.4 3.4 0 0 0-1.69-2.95z" transform="translate(126.36 -151.17)" opacity=".7" fill="url(#b)"/><path d="M-96.66 155.88l-4.44-2.56a2.83 2.83 0 0 0-2.83 0l-4.44 2.56L-119 162l-4.36 2.51a2.83 2.83 0 0 0-1.41 2.45v10.71l32.89-19z" transform="translate(126.36 -151.17)" fill="url(#c)" opacity=".8"/><path d="M45.89 12.17L25.65.48a3.6 3.6 0 0 0-3.6 0L1.81 12.17a3.6 3.6 0 0 0-1.8 3.12v23.37a3.6 3.6 0 0 0 1.8 3.12l20.24 11.69a3.6 3.6 0 0 0 3.6 0l20.24-11.64a3.6 3.6 0 0 0 1.8-3.12V15.29a3.6 3.6 0 0 0-1.8-3.12zm-6.92 22.95l4.33-7.49a.75.75 0 0 0 0-.75l-4.33-7.49 7-4.05a3.39 3.39 0 0 1 .1.81v21.76a3.39 3.39 0 0 1-.22 1.2zm-37.15 4a3.39 3.39 0 0 1-.22-1.2V16.14a3.39 3.39 0 0 1 .1-.81l7 4.05-4.34 7.45a.75.75 0 0 0 0 .75l4.33 7.49zm4.09-11.85l4.11-7.12 5.35 3.09v8.06l-5.35 3.09zm4.86-8.42l4.11-7.12h8.22v6.17l-7 4zm5.35 13.74l7 4v6.24H14.9l-4.11-7.12zm.75-1.3v-8.06l7-4 7 4v8.06l-7 4zm7.73-19.56h8.22l4.11 7.12-5.35 3.09-7-4v-6.17zm0 24.89l7-4 5.35 3.09-4.14 7.12h-8.22v-6.17zm7.73-5.33v-8.06l5.35-3.09 4.11 7.12-4.11 7.12zM29.71 4.72l1.49.86 7.64 4.41 1.52.84 4.07 2.35a3.39 3.39 0 0 1 .92.79l-7.09 4.1-4.33-7.49a.75.75 0 0 0-.65-.37h-8.65V1.94a3.39 3.39 0 0 1 .95.37zM3.31 13.2l4.05-2.37 1.49-.86 7.64-4.41 1.49-.86 4.15-2.4a3.39 3.39 0 0 1 .95-.37v8.27h-8.65a.75.75 0 0 0-.65.38l-4.33 7.49-7.1-4.1a3.39 3.39 0 0 1 .95-.78zM18 49.33l-1.49-.86-6.62-3.82-2.54-1.47-4-2.33a3.39 3.39 0 0 1-.65-.49l6.82-3.94 4.33 7.49a.75.75 0 0 0 .65.38h8.65v7.81a3.38 3.38 0 0 1-.95-.37zm22.36-6.16l-10.65 6.15-4.16 2.4a3.39 3.39 0 0 1-.95.37v-7.81h8.65a.75.75 0 0 0 .65-.37l4.33-7.49 6.82 3.94a3.39 3.39 0 0 1-.69.47z" fill="#fff"/></svg>