<svg data-name="Layer 1" xmlns="http://www.w3.org/2000/svg" viewBox="0 0 15.01 16.01"><path d="M14.67 16H.34a.35.35 0 0 1-.34-.34c0-1.91.23-2.34 1.76-3.26l3.76-2.26V10a3.57 3.57 0 0 1-1.57-2A3 3 0 0 1 3 5.71a1.26 1.26 0 0 1 .41-1.25C3.49 2.6 3.79 0 7.5 0s4 2.6 4.12 4.45A1.26 1.26 0 0 1 12 5.71c0 .71-.43 2.06-1 2.27a3.58 3.58 0 0 1-1.57 2v.13l3.77 2.37c1.5.95 1.75 1.36 1.76 3a.37.37 0 0 1 0 .09.35.35 0 0 1-.29.43zm-14-.71h13.65c0-1.19-.2-1.39-1.42-2.16L9 10.67a.36.36 0 0 1-.16-.31v-.53a.36.36 0 0 1 .16-.3 2.87 2.87 0 0 0 1.48-2 .34.34 0 0 1 .37-.29 3.12 3.12 0 0 0 .52-1.58 1.61 1.61 0 0 0-.06-.63l-.1-.03a.35.35 0 0 1-.21-.28c-.14-2.35-.46-4-3.46-4S4.18 2.37 4 4.72a.35.35 0 0 1-.21.28h-.1a1.74 1.74 0 0 0-.05.62 3.12 3.12 0 0 0 .52 1.58.34.34 0 0 1 .37.29A2.87 2.87 0 0 0 6 9.53a.36.36 0 0 1 .16.3v.52a.36.36 0 0 1-.17.31L2.1 13c-1.22.75-1.4 1-1.42 2.3z" fill="#5a7084"/></svg>